<svg xmlns="http://www.w3.org/2000/svg" xmlns:xlink="http://www.w3.org/1999/xlink" viewBox="0 0 240 170"><defs><clipPath id="clip-path"><rect x="-260" width="240" height="170" fill="none"/></clipPath><clipPath id="clip-path-2"><rect x="-770" width="750" height="500" fill="none"/></clipPath><linearGradient id="linear-gradient" x1="-839.09" y1="-1435.235" x2="-438.073" y2="-1435.235" gradientTransform="translate(-584.734 1466.395) rotate(45)" gradientUnits="userSpaceOnUse"><stop offset="0" stop-color="#9b3e3e"/><stop offset="0.17" stop-color="#8e3737" stop-opacity="0.868"/><stop offset="0.52" stop-color="#6b2424" stop-opacity="0.526"/><stop offset="1" stop-color="#360808" stop-opacity="0"/></linearGradient><linearGradient id="linear-gradient-2" x1="-829.59" y1="-1435.235" x2="-447.573" y2="-1435.235" xlink:href="#linear-gradient"/><linearGradient id="linear-gradient-3" x1="-820.09" y1="-1435.235" x2="-457.073" y2="-1435.235" xlink:href="#linear-gradient"/><linearGradient id="linear-gradient-4" x1="-810.59" y1="-1435.235" x2="-466.573" y2="-1435.235" xlink:href="#linear-gradient"/><linearGradient id="linear-gradient-5" x1="-801.09" y1="-1435.235" x2="-476.073" y2="-1435.235" xlink:href="#linear-gradient"/><linearGradient id="linear-gradient-6" x1="-791.59" y1="-1435.235" x2="-485.573" y2="-1435.235" xlink:href="#linear-gradient"/><linearGradient id="linear-gradient-7" x1="-782.09" y1="-1435.235" x2="-495.073" y2="-1435.235" xlink:href="#linear-gradient"/><linearGradient id="linear-gradient-8" x1="-772.59" y1="-1435.235" x2="-504.573" y2="-1435.235" xlink:href="#linear-gradient"/><linearGradient id="linear-gradient-9" x1="-763.09" y1="-1435.235" x2="-514.073" y2="-1435.235" xlink:href="#linear-gradient"/><linearGradient id="linear-gradient-10" x1="-753.59" y1="-1435.235" x2="-523.573" y2="-1435.235" xlink:href="#linear-gradient"/><linearGradient id="linear-gradient-11" x1="-2407.11" y1="3502.036" x2="-2115.351" y2="3502.036" gradientTransform="translate(-3523.456 -2063.447) rotate(-90)" xlink:href="#linear-gradient"/><linearGradient id="linear-gradient-12" x1="-2400.187" y1="3502.036" x2="-2122.274" y2="3502.036" gradientTransform="translate(-3523.456 -2063.447) rotate(-90)" xlink:href="#linear-gradient"/><linearGradient id="linear-gradient-13" x1="-2393.265" y1="3502.036" x2="-2129.196" y2="3502.036" gradientTransform="translate(-3523.456 -2063.447) rotate(-90)" xlink:href="#linear-gradient"/><linearGradient id="linear-gradient-14" x1="-2386.342" y1="3502.036" x2="-2136.119" y2="3502.036" gradientTransform="translate(-3523.456 -2063.447) rotate(-90)" xlink:href="#linear-gradient"/><linearGradient id="linear-gradient-15" x1="-2379.419" y1="3502.036" x2="-2143.042" y2="3502.036" gradientTransform="translate(-898.802 -3877.461) rotate(-45)" xlink:href="#linear-gradient"/><linearGradient id="linear-gradient-16" x1="-2372.497" y1="3502.036" x2="-2149.965" y2="3502.036" gradientTransform="translate(-3523.456 -2063.447) rotate(-90)" xlink:href="#linear-gradient"/><linearGradient id="linear-gradient-17" x1="-2365.574" y1="3502.036" x2="-2156.887" y2="3502.036" gradientTransform="translate(-3523.456 -2063.447) rotate(-90)" xlink:href="#linear-gradient"/><linearGradient id="linear-gradient-18" x1="-2358.651" y1="3502.036" x2="-2163.81" y2="3502.036" gradientTransform="translate(-3523.456 -2063.447) rotate(-90)" xlink:href="#linear-gradient"/><linearGradient id="linear-gradient-19" x1="-2351.728" y1="3502.036" x2="-2170.733" y2="3502.036" gradientTransform="translate(-3523.456 -2063.447) rotate(-90)" xlink:href="#linear-gradient"/><linearGradient id="linear-gradient-20" x1="-2344.806" y1="3502.036" x2="-2177.655" y2="3502.036" gradientTransform="translate(-898.802 -3877.461) rotate(-45)" xlink:href="#linear-gradient"/><clipPath id="clip-path-3"><rect width="240" height="170" fill="none"/></clipPath><linearGradient id="linear-gradient-21" x1="95.281" y1="-318.322" x2="95.281" y2="173.877" gradientUnits="userSpaceOnUse"><stop offset="0" stop-color="#541615"/><stop offset="0.062" stop-color="#511514"/><stop offset="0.622" stop-color="#3d0b0b"/><stop offset="1" stop-color="#360808"/></linearGradient><clipPath id="clip-path-4"><rect x="-279.719" y="-321.322" width="750" height="500" fill="none"/></clipPath><linearGradient id="linear-gradient-22" x1="-5332.038" y1="21.04" x2="-5030.567" y2="322.511" gradientTransform="matrix(-1, 0, 0, 1, -5337.899, 0)" gradientUnits="userSpaceOnUse"><stop offset="0" stop-color="#541615"/><stop offset="0.042" stop-color="#501413" stop-opacity="0.882"/><stop offset="0.179" stop-color="#47100f" stop-opacity="0.562"/><stop offset="0.329" stop-color="#3f0c0c" stop-opacity="0.312"/><stop offset="0.496" stop-color="#3a0a0a" stop-opacity="0.135"/><stop offset="0.694" stop-color="#370808" stop-opacity="0.032"/><stop offset="1" stop-color="#360808" stop-opacity="0"/></linearGradient><clipPath id="clip-path-5"><rect x="260" width="240" height="170" fill="none"/></clipPath><clipPath id="clip-path-6"><rect x="251.933" y="-121.106" width="750" height="500" fill="none"/></clipPath><linearGradient id="linear-gradient-23" x1="-4625.032" y1="2971.583" x2="-4269.169" y2="2971.583" gradientTransform="translate(-4993.817 -842.666) rotate(-135)" xlink:href="#linear-gradient"/><linearGradient id="linear-gradient-24" x1="-4616.597" y1="2971.583" x2="-4277.604" y2="2971.583" gradientTransform="translate(-4993.817 -842.666) rotate(-135)" xlink:href="#linear-gradient"/><linearGradient id="linear-gradient-25" x1="-4608.162" y1="2971.583" x2="-4286.039" y2="2971.583" gradientTransform="translate(-4993.817 -842.666) rotate(-135)" xlink:href="#linear-gradient"/><linearGradient id="linear-gradient-26" x1="-4599.727" y1="2971.583" x2="-4294.474" y2="2971.583" gradientTransform="translate(-4993.817 -842.666) rotate(-135)" xlink:href="#linear-gradient"/><linearGradient id="linear-gradient-27" x1="-4591.292" y1="2971.583" x2="-4302.908" y2="2971.583" gradientTransform="translate(-4993.817 -842.666) rotate(-135)" xlink:href="#linear-gradient"/><linearGradient id="linear-gradient-28" x1="-4582.857" y1="2971.583" x2="-4311.343" y2="2971.583" gradientTransform="translate(-4993.817 -842.666) rotate(-135)" xlink:href="#linear-gradient"/><linearGradient id="linear-gradient-29" x1="-4574.422" y1="2971.583" x2="-4319.778" y2="2971.583" gradientTransform="translate(-4993.817 -842.666) rotate(-135)" xlink:href="#linear-gradient"/><linearGradient id="linear-gradient-30" x1="-4565.987" y1="2971.583" x2="-4328.213" y2="2971.583" gradientTransform="translate(-4993.817 -842.666) rotate(-135)" xlink:href="#linear-gradient"/><linearGradient id="linear-gradient-31" x1="-4557.553" y1="2971.583" x2="-4336.648" y2="2971.583" gradientTransform="translate(-4993.817 -842.666) rotate(-135)" xlink:href="#linear-gradient"/><linearGradient id="linear-gradient-32" x1="-4549.118" y1="2971.583" x2="-4345.083" y2="2971.583" gradientTransform="translate(-4993.817 -842.666) rotate(-135)" xlink:href="#linear-gradient"/><linearGradient id="linear-gradient-33" x1="-2263.221" y1="3775.39" x2="-1971.461" y2="3775.39" gradientTransform="translate(-920.484 -4112.895) rotate(-45)" xlink:href="#linear-gradient"/><linearGradient id="linear-gradient-34" x1="-2256.298" y1="3775.39" x2="-1978.384" y2="3775.39" gradientTransform="translate(-3523.456 -2063.447) rotate(-90)" xlink:href="#linear-gradient"/><linearGradient id="linear-gradient-35" x1="-2249.375" y1="3775.39" x2="-1985.307" y2="3775.39" gradientTransform="translate(-3523.456 -2063.447) rotate(-90)" xlink:href="#linear-gradient"/><linearGradient id="linear-gradient-36" x1="-2242.453" y1="3775.39" x2="-1992.23" y2="3775.39" gradientTransform="translate(-920.484 -4112.895) rotate(-45)" xlink:href="#linear-gradient"/><linearGradient id="linear-gradient-37" x1="-2235.53" y1="3775.39" x2="-1999.152" y2="3775.39" gradientTransform="translate(-920.484 -4112.895) rotate(-45)" xlink:href="#linear-gradient"/><linearGradient id="linear-gradient-38" x1="-2228.607" y1="3775.39" x2="-2006.075" y2="3775.39" gradientTransform="translate(-920.484 -4112.895) rotate(-45)" xlink:href="#linear-gradient"/><linearGradient id="linear-gradient-39" x1="-2221.684" y1="3775.39" x2="-2012.998" y2="3775.39" gradientTransform="translate(-3523.456 -2063.447) rotate(-90)" xlink:href="#linear-gradient"/><linearGradient id="linear-gradient-40" x1="-2214.762" y1="3775.39" x2="-2019.921" y2="3775.39" gradientTransform="translate(-3523.456 -2063.447) rotate(-90)" xlink:href="#linear-gradient"/><linearGradient id="linear-gradient-41" x1="-2207.839" y1="3775.39" x2="-2026.843" y2="3775.39" gradientTransform="translate(-3523.456 -2063.447) rotate(-90)" xlink:href="#linear-gradient"/><linearGradient id="linear-gradient-42" x1="-2200.916" y1="3775.39" x2="-2033.766" y2="3775.39" gradientTransform="translate(-920.484 -4112.895) rotate(-45)" xlink:href="#linear-gradient"/><linearGradient id="linear-gradient-43" x1="-5863.69" y1="221.256" x2="-5562.219" y2="522.727" xlink:href="#linear-gradient-22"/><clipPath id="clip-path-7"><rect x="520" width="240" height="170" fill="none"/></clipPath><linearGradient id="linear-gradient-44" x1="599.317" y1="-25.491" x2="599.317" y2="466.708" xlink:href="#linear-gradient-21"/><clipPath id="clip-path-8"><rect x="224.317" y="-28.491" width="750" height="500" fill="none"/></clipPath><linearGradient id="linear-gradient-45" x1="-4670.993" y1="2886.565" x2="-4315.13" y2="2886.565" gradientTransform="translate(-4993.817 -842.666) rotate(-135)" xlink:href="#linear-gradient"/><linearGradient id="linear-gradient-46" x1="-4662.558" y1="2886.565" x2="-4323.565" y2="2886.565" gradientTransform="translate(-4993.817 -842.666) rotate(-135)" xlink:href="#linear-gradient"/><linearGradient id="linear-gradient-47" x1="-4654.123" y1="2886.565" x2="-4332" y2="2886.565" gradientTransform="translate(-4993.817 -842.666) rotate(-135)" xlink:href="#linear-gradient"/><linearGradient id="linear-gradient-48" x1="-4645.688" y1="2886.565" x2="-4340.435" y2="2886.565" gradientTransform="translate(-4993.817 -842.666) rotate(-135)" xlink:href="#linear-gradient"/><linearGradient id="linear-gradient-49" x1="-4637.253" y1="2886.565" x2="-4348.869" y2="2886.565" gradientTransform="translate(-4993.817 -842.666) rotate(-135)" xlink:href="#linear-gradient"/><linearGradient id="linear-gradient-50" x1="-4628.818" y1="2886.565" x2="-4357.304" y2="2886.565" gradientTransform="translate(-4993.817 -842.666) rotate(-135)" xlink:href="#linear-gradient"/><linearGradient id="linear-gradient-51" x1="-4620.383" y1="2886.565" x2="-4365.739" y2="2886.565" gradientTransform="translate(-4993.817 -842.666) rotate(-135)" xlink:href="#linear-gradient"/><linearGradient id="linear-gradient-52" x1="-2355.836" y1="3747.773" x2="-2064.076" y2="3747.773" gradientTransform="translate(-863.084 -4066.241) rotate(-45)" xlink:href="#linear-gradient"/><linearGradient id="linear-gradient-53" x1="-2348.913" y1="3747.773" x2="-2070.999" y2="3747.773" gradientTransform="translate(-3523.456 -2063.447) rotate(-90)" xlink:href="#linear-gradient"/><linearGradient id="linear-gradient-54" x1="-2341.99" y1="3747.773" x2="-2077.922" y2="3747.773" gradientTransform="translate(-3523.456 -2063.447) rotate(-90)" xlink:href="#linear-gradient"/><linearGradient id="linear-gradient-55" x1="-2335.067" y1="3747.773" x2="-2084.845" y2="3747.773" gradientTransform="translate(-863.084 -4066.241) rotate(-45)" xlink:href="#linear-gradient"/><linearGradient id="linear-gradient-56" x1="-2328.145" y1="3747.773" x2="-2091.767" y2="3747.773" gradientTransform="translate(-863.084 -4066.241) rotate(-45)" xlink:href="#linear-gradient"/><linearGradient id="linear-gradient-57" x1="-2321.222" y1="3747.773" x2="-2098.69" y2="3747.773" gradientTransform="translate(-863.084 -4066.241) rotate(-45)" xlink:href="#linear-gradient"/><linearGradient id="linear-gradient-58" x1="-2314.299" y1="3747.773" x2="-2105.613" y2="3747.773" gradientTransform="translate(-3523.456 -2063.447) rotate(-90)" xlink:href="#linear-gradient"/><linearGradient id="linear-gradient-59" x1="-2307.377" y1="3747.773" x2="-2112.536" y2="3747.773" gradientTransform="translate(-3523.456 -2063.447) rotate(-90)" xlink:href="#linear-gradient"/><linearGradient id="linear-gradient-60" x1="-2300.454" y1="3747.773" x2="-2119.458" y2="3747.773" gradientTransform="translate(-3523.456 -2063.447) rotate(-90)" xlink:href="#linear-gradient"/><linearGradient id="linear-gradient-61" x1="-2293.531" y1="3747.773" x2="-2126.381" y2="3747.773" gradientTransform="translate(-863.084 -4066.241) rotate(-45)" xlink:href="#linear-gradient"/></defs><g style="isolation:isolate"><g id="OBJECTS"><g clip-path="url(#clip-path)"><g clip-path="url(#clip-path-2)"><g style="mix-blend-mode:screen"><circle cx="-21.42" r="199.007" fill="none" stroke-miterlimit="10" stroke-width="3" stroke="url(#linear-gradient)"/><circle cx="-21.42" r="189.618" fill="none" stroke-miterlimit="10" stroke-width="2.778" stroke="url(#linear-gradient-2)"/><circle cx="-21.42" r="180.229" fill="none" stroke-miterlimit="10" stroke-width="2.556" stroke="url(#linear-gradient-3)"/><circle cx="-21.42" r="170.84" fill="none" stroke-miterlimit="10" stroke-width="2.333" stroke="url(#linear-gradient-4)"/><circle cx="-21.42" r="161.451" fill="none" stroke-miterlimit="10" stroke-width="2.111" stroke="url(#linear-gradient-5)"/><circle cx="-21.42" r="152.063" fill="none" stroke-miterlimit="10" stroke-width="1.889" stroke="url(#linear-gradient-6)"/><circle cx="-21.42" r="142.674" fill="none" stroke-miterlimit="10" stroke-width="1.667" stroke="url(#linear-gradient-7)"/><circle cx="-21.42" r="133.285" fill="none" stroke-miterlimit="10" stroke-width="1.444" stroke="url(#linear-gradient-8)"/><circle cx="-21.42" r="123.896" fill="none" stroke-miterlimit="10" stroke-width="1.222" stroke="url(#linear-gradient-9)"/><circle cx="-21.42" r="114.507" fill="none" stroke-miterlimit="10" stroke="url(#linear-gradient-10)"/></g><g opacity="0.5" style="mix-blend-mode:screen"><circle cx="-21.42" cy="197.784" r="144.38" fill="none" stroke-miterlimit="10" stroke-width="3" stroke="url(#linear-gradient-11)"/><circle cx="-21.42" cy="197.784" r="137.568" fill="none" stroke-miterlimit="10" stroke-width="2.778" stroke="url(#linear-gradient-12)"/><circle cx="-21.42" cy="197.784" r="130.756" fill="none" stroke-miterlimit="10" stroke-width="2.556" stroke="url(#linear-gradient-13)"/><circle cx="-21.42" cy="197.784" r="123.945" fill="none" stroke-miterlimit="10" stroke-width="2.333" stroke="url(#linear-gradient-14)"/><circle cx="-21.42" cy="197.784" r="117.133" transform="translate(-146.128 42.783) rotate(-45)" fill="none" stroke-miterlimit="10" stroke-width="2.111" stroke="url(#linear-gradient-15)"/><circle cx="-21.42" cy="197.784" r="110.322" fill="none" stroke-miterlimit="10" stroke-width="1.889" stroke="url(#linear-gradient-16)"/><circle cx="-21.42" cy="197.784" r="103.51" fill="none" stroke-miterlimit="10" stroke-width="1.667" stroke="url(#linear-gradient-17)"/><circle cx="-21.42" cy="197.784" r="96.698" fill="none" stroke-miterlimit="10" stroke-width="1.444" stroke="url(#linear-gradient-18)"/><circle cx="-21.42" cy="197.784" r="89.887" fill="none" stroke-miterlimit="10" stroke-width="1.222" stroke="url(#linear-gradient-19)"/><circle cx="-21.42" cy="197.784" r="83.075" transform="translate(-146.128 42.783) rotate(-45)" fill="none" stroke-miterlimit="10" stroke="url(#linear-gradient-20)"/></g></g></g><g clip-path="url(#clip-path-3)"><rect x="-279.719" y="-321.322" width="750" height="500" fill="url(#linear-gradient-21)"/><g clip-path="url(#clip-path-4)"><g style="mix-blend-mode:screen"><path d="M240.388,174.689a3.919,3.919,0,0,1-5.392-.207,3.68,3.68,0,0,1,.073-5.335,3.878,3.878,0,0,1,5.377-.028A3.924,3.924,0,0,1,240.388,174.689Z" fill="#541615"/><path d="M240.2,150.23a3.593,3.593,0,0,1,.123,5.136,3.81,3.81,0,0,1-5.179-.059,3.749,3.749,0,0,1-.059-5A3.513,3.513,0,0,1,240.2,150.23Z" fill="#541615"/><path d="M230.726,159.765a3.589,3.589,0,0,1,.06,5.136,3.815,3.815,0,0,1-5.179-.122,3.751,3.751,0,0,1,0-5A3.509,3.509,0,0,1,230.726,159.765Z" fill="#541615"/><path d="M221.09,169.45a3.8,3.8,0,0,1-.03,5.179,3.605,3.605,0,0,1-5.137-.214,3.52,3.52,0,0,1,0-4.951A3.731,3.731,0,0,1,221.09,169.45Z" fill="#541615"/><path d="M201.691,169.556a3.419,3.419,0,1,1-4.924,0A3.425,3.425,0,0,1,201.691,169.556Z" fill="#541615"/><path d="M206.414,164.767a3.409,3.409,0,0,1,.065-4.921,3.461,3.461,0,0,1,4.758.079,3.417,3.417,0,0,1-4.823,4.842Z" fill="#541615"/><path d="M216.231,150.086a3.426,3.426,0,1,1-.057,4.93A3.443,3.443,0,0,1,216.231,150.086Z" fill="#541615"/><path d="M230.546,140.711a3.419,3.419,0,0,1-4.92,4.75,3.469,3.469,0,0,1,0-4.761A3.42,3.42,0,0,1,230.546,140.711Z" fill="#541615"/><path d="M240.058,131.046a3.42,3.42,0,1,1-4.927.147A3.465,3.465,0,0,1,240.058,131.046Z" fill="#541615"/><path d="M201.6,150.393a3.2,3.2,0,1,1-4.351,4.693,3.2,3.2,0,0,1,4.351-4.693Z" fill="#541615"/><path d="M240.253,112.367a3.3,3.3,0,0,1-.284,4.508,3.359,3.359,0,0,1-4.683-.467,3.054,3.054,0,0,1,.747-4.558A2.949,2.949,0,0,1,240.253,112.367Z" fill="#541615"/><path d="M226.2,121.638a2.953,2.953,0,0,1,4.418.083,3.2,3.2,0,1,1-4.705,4.335A2.967,2.967,0,0,1,226.2,121.638Z" fill="#541615"/><path d="M220.742,136.111a3.348,3.348,0,0,1-4.526-.163,3.207,3.207,0,0,1,4.522-4.537A3.35,3.35,0,0,1,220.742,136.111Z" fill="#541615"/><path d="M206.835,141.006a2.951,2.951,0,0,1,4.422-.066,3.205,3.205,0,1,1-4.569,4.49A2.968,2.968,0,0,1,206.835,141.006Z" fill="#541615"/><path d="M191.883,164.972a3.355,3.355,0,0,1-4.527-.183,3.207,3.207,0,0,1,4.541-4.518A3.356,3.356,0,0,1,191.883,164.972Z" fill="#541615"/><path d="M182.27,169.644a2.908,2.908,0,0,1,.044,4.405,3.367,3.367,0,0,1-4.529.089,3.309,3.309,0,0,1-.149-4.51A3.1,3.1,0,0,1,182.27,169.644Z" fill="#541615"/><path d="M191.69,141.089a2.871,2.871,0,0,1,.17,4.218,3.228,3.228,0,0,1-4.314-.1,3,3,0,0,1,.157-4.259A2.654,2.654,0,0,1,191.69,141.089Z" fill="#541615"/><path d="M239.829,92.993a3.216,3.216,0,0,1-.01,4.355,2.864,2.864,0,0,1-4.089-.195,2.671,2.671,0,0,1-.2-4.029A3,3,0,0,1,239.829,92.993Z" fill="#541615"/><path d="M230.041,102.733a2.887,2.887,0,0,1,.3,4.09,3.22,3.22,0,0,1-4.355.118,3,3,0,0,1,.028-4.3A2.65,2.65,0,0,1,230.041,102.733Z" fill="#541615"/><path d="M220.475,112.174a2.922,2.922,0,0,1,.426,4.089,3.228,3.228,0,0,1-4.353.243,2.993,2.993,0,0,1-.1-4.3A2.656,2.656,0,0,1,220.475,112.174Z" fill="#541615"/><path d="M206.623,122.028a3.02,3.02,0,0,1,4.3-.24,3.22,3.22,0,0,1,.1,4.356,2.859,2.859,0,0,1-4.092-.089A2.683,2.683,0,0,1,206.623,122.028Z" fill="#541615"/><path d="M201.479,131.35a3.216,3.216,0,0,1-.018,4.355,2.866,2.866,0,0,1-4.09-.2,2.664,2.664,0,0,1-.2-4.027A3,3,0,0,1,201.479,131.35Z" fill="#541615"/><path d="M177.912,150.741a3,3,0,0,1,4.3.035,3.229,3.229,0,0,1-.179,4.356,2.9,2.9,0,0,1-4.091-.364A2.647,2.647,0,0,1,177.912,150.741Z" fill="#541615"/><path d="M172.678,160.249a3.22,3.22,0,0,1-.116,4.354,2.927,2.927,0,0,1-4.254-.473,2.6,2.6,0,0,1,.075-3.847A2.978,2.978,0,0,1,172.678,160.249Z" fill="#541615"/><path d="M162.764,169.863a2.929,2.929,0,0,1,.448,4.09,3.228,3.228,0,0,1-4.351.261,2.994,2.994,0,0,1-.122-4.3A2.645,2.645,0,0,1,162.764,169.863Z" fill="#541615"/><path d="M235.558,77.9a2.915,2.915,0,0,1,.118-4.089,2.8,2.8,0,0,1,3.884.2,2.892,2.892,0,0,1,.072,3.911A2.843,2.843,0,0,1,235.558,77.9Z" fill="#541615"/><path d="M226.054,87.4a2.914,2.914,0,0,1,.119-4.088,2.8,2.8,0,0,1,3.883.2,2.891,2.891,0,0,1,.072,3.912A2.843,2.843,0,0,1,226.054,87.4Z" fill="#541615"/><path d="M220.34,93.107a2.85,2.85,0,0,1,.025,4.076,2.879,2.879,0,0,1-3.908-.07,2.792,2.792,0,0,1-.206-3.88A2.92,2.92,0,0,1,220.34,93.107Z" fill="#541615"/><path d="M210.837,102.611a2.848,2.848,0,0,1,.025,4.075,2.878,2.878,0,0,1-3.908-.069,2.792,2.792,0,0,1-.207-3.88A2.922,2.922,0,0,1,210.837,102.611Z" fill="#541615"/><path d="M201.234,112.392a2.791,2.791,0,1,1-4.06,3.829,2.911,2.911,0,0,1,.178-4.085A2.808,2.808,0,0,1,201.234,112.392Z" fill="#541615"/><path d="M191.685,121.842a2.793,2.793,0,1,1-3.967,3.932,2.915,2.915,0,0,1,.083-4.089A2.8,2.8,0,0,1,191.685,121.842Z" fill="#541615"/><path d="M182.077,131.561a2.826,2.826,0,0,1-.167,4.065,2.911,2.911,0,0,1-3.908-.248,2.8,2.8,0,0,1-.011-3.887A2.9,2.9,0,0,1,182.077,131.561Z" fill="#541615"/><path d="M172.56,141.049a2.831,2.831,0,0,1-.137,4.067,2.918,2.918,0,0,1-3.911-.221,2.8,2.8,0,0,1-.039-3.888A2.906,2.906,0,0,1,172.56,141.049Z" fill="#541615"/><path d="M162.713,150.573a2.89,2.89,0,0,1,.181,4.079,2.827,2.827,0,0,1-3.9.085,2.887,2.887,0,0,1-.164-4.081A2.78,2.78,0,0,1,162.713,150.573Z" fill="#541615"/><path d="M153.127,160.3a2.847,2.847,0,0,1,.044,4.074,2.885,2.885,0,0,1-3.91-.045,2.784,2.784,0,0,1-.216-3.878A2.9,2.9,0,0,1,153.127,160.3Z" fill="#541615"/><path d="M143.573,169.761a2.84,2.84,0,0,1,.139,4.07,2.869,2.869,0,0,1-3.907.046,2.8,2.8,0,0,1-.314-3.876A2.916,2.916,0,0,1,143.573,169.761Z" fill="#541615"/><path d="M207.081,87.434a2.473,2.473,0,0,1,.016-3.61,2.567,2.567,0,0,1,3.631-.145,2.865,2.865,0,0,1,0,3.878A2.61,2.61,0,0,1,207.081,87.434Z" fill="#541615"/><path d="M236.015,54.908a2.548,2.548,0,0,1,3.626-.008,2.83,2.83,0,0,1-.135,3.868,2.621,2.621,0,0,1-3.643-.251A2.481,2.481,0,0,1,236.015,54.908Z" fill="#541615"/><path d="M226.487,68.141a2.476,2.476,0,0,1-.1-3.609,2.569,2.569,0,0,1,3.626-.249,2.834,2.834,0,0,1,.113,3.869A2.586,2.586,0,0,1,226.487,68.141Z" fill="#541615"/><path d="M220.348,74.11a2.624,2.624,0,0,1,.178,3.646,2.847,2.847,0,0,1-3.874.059,2.56,2.56,0,0,1,.084-3.629A2.479,2.479,0,0,1,220.348,74.11Z" fill="#541615"/><path d="M197.626,96.982a2.469,2.469,0,0,1-.08-3.608,2.569,2.569,0,0,1,3.627-.235,2.82,2.82,0,0,1,.09,3.865A2.572,2.572,0,0,1,197.626,96.982Z" fill="#541615"/><path d="M191.446,102.911a2.617,2.617,0,0,1,.275,3.64,2.827,2.827,0,0,1-3.866.161,2.552,2.552,0,0,1-.017-3.627A2.481,2.481,0,0,1,191.446,102.911Z" fill="#541615"/><path d="M178.315,112.609a2.481,2.481,0,0,1,3.606-.213,2.616,2.616,0,0,1,.314,3.636,2.821,2.821,0,0,1-3.863.2A2.535,2.535,0,0,1,178.315,112.609Z" fill="#541615"/><path d="M168.793,125.847a2.465,2.465,0,0,1-.11-3.606,2.567,2.567,0,0,1,3.625-.265,2.833,2.833,0,0,1,.126,3.869A2.585,2.585,0,0,1,168.793,125.847Z" fill="#541615"/><path d="M159.154,135.221a2.48,2.48,0,0,1,.156-3.608,2.538,2.538,0,0,1,3.622,0,2.821,2.821,0,0,1-.137,3.866A2.619,2.619,0,0,1,159.154,135.221Z" fill="#541615"/><path d="M153.155,141.325a2.621,2.621,0,0,1,.157,3.647,2.854,2.854,0,0,1-3.876.036,2.557,2.557,0,0,1,.112-3.627A2.467,2.467,0,0,1,153.155,141.325Z" fill="#541615"/><path d="M139.849,154.61a2.486,2.486,0,0,1,.077-3.612,2.558,2.558,0,0,1,3.627-.084,2.846,2.846,0,0,1-.059,3.873A2.621,2.621,0,0,1,139.849,154.61Z" fill="#541615"/><path d="M130.406,160.516a2.564,2.564,0,0,1,3.629-.115,2.854,2.854,0,0,1-.028,3.876,2.628,2.628,0,0,1-3.649-.151A2.474,2.474,0,0,1,130.406,160.516Z" fill="#541615"/><path d="M120.724,170.2a2.473,2.473,0,0,1,3.609.008,2.6,2.6,0,0,1,.1,3.646,2.848,2.848,0,0,1-3.876-.023A2.566,2.566,0,0,1,120.724,170.2Z" fill="#541615"/><path d="M140,131.934a2.375,2.375,0,0,1,3.22-.222,2.636,2.636,0,0,1,.166,3.456A2.354,2.354,0,0,1,140,135.1,2.15,2.15,0,0,1,140,131.934Z" fill="#541615"/><path d="M236.084,35.85a2.365,2.365,0,0,1,3.22-.162,2.631,2.631,0,0,1,.107,3.455,2.369,2.369,0,0,1-3.391-.125A2.159,2.159,0,0,1,236.084,35.85Z" fill="#541615"/><path d="M229.91,48.641a2.633,2.633,0,0,1-3.455.151,2.344,2.344,0,0,1-.085-3.218,2.175,2.175,0,0,1,3.158-.319A2.41,2.41,0,0,1,229.91,48.641Z" fill="#541615"/><path d="M216.93,55a2.166,2.166,0,0,1,3.167-.177,2.375,2.375,0,0,1,.243,3.387,2.629,2.629,0,0,1-3.457.012A2.356,2.356,0,0,1,216.93,55Z" fill="#541615"/><path d="M207.165,64.771a2.358,2.358,0,0,1,3.389-.136,2.668,2.668,0,0,1,.072,3.285,2.351,2.351,0,0,1-3.387.018A2.158,2.158,0,0,1,207.165,64.771Z" fill="#541615"/><path d="M197.636,74.3a2.157,2.157,0,0,1,3.167-.074,2.36,2.36,0,0,1,.138,3.389,2.628,2.628,0,0,1-3.456-.093A2.366,2.366,0,0,1,197.636,74.3Z" fill="#541615"/><path d="M191.4,83.829a2.357,2.357,0,0,1,.1,3.221,2.623,2.623,0,0,1-3.454.039,2.369,2.369,0,0,1,.189-3.39A2.162,2.162,0,0,1,191.4,83.829Z" fill="#541615"/><path d="M181.7,93.484a2.63,2.63,0,0,1-.09,3.455,2.364,2.364,0,0,1-3.221-.148,2.189,2.189,0,0,1,.091-3.336A2.351,2.351,0,0,1,181.7,93.484Z" fill="#541615"/><path d="M172.171,102.959a2.627,2.627,0,0,1-.033,3.456,2.36,2.36,0,0,1-3.222-.093,2.179,2.179,0,0,1,.033-3.335A2.353,2.353,0,0,1,172.171,102.959Z" fill="#541615"/><path d="M162.432,112.568a2.351,2.351,0,0,1,.17,3.384,2.663,2.663,0,0,1-3.283.1,2.336,2.336,0,0,1-.052-3.383A2.152,2.152,0,0,1,162.432,112.568Z" fill="#541615"/><path d="M153.021,122.159a2.354,2.354,0,0,1,.155,3.217,2.633,2.633,0,0,1-3.455.1,2.357,2.357,0,0,1,.132-3.388A2.159,2.159,0,0,1,153.021,122.159Z" fill="#541615"/><path d="M133.826,144.724a2.628,2.628,0,0,1-3.455.09,2.352,2.352,0,0,1-.027-3.22,2.175,2.175,0,0,1,3.164-.257A2.391,2.391,0,0,1,133.826,144.724Z" fill="#541615"/><path d="M124.2,151.032a2.36,2.36,0,0,1,.1,3.222,2.626,2.626,0,0,1-3.455.039,2.37,2.37,0,0,1,.19-3.39A2.162,2.162,0,0,1,124.2,151.032Z" fill="#541615"/><path d="M111.158,160.777a2.371,2.371,0,0,1,3.22-.208,2.635,2.635,0,0,1,.153,3.455,2.363,2.363,0,0,1-3.392-.081A2.149,2.149,0,0,1,111.158,160.777Z" fill="#541615"/><path d="M104.961,173.592a2.356,2.356,0,0,1-3.222-.039,2.186,2.186,0,0,1-.022-3.337,2.353,2.353,0,0,1,3.22-.079A2.622,2.622,0,0,1,104.961,173.592Z" fill="#541615"/><path d="M239.2,16.919a2.023,2.023,0,0,1,.06,2.951,2.3,2.3,0,0,1-3.2-.006,2.253,2.253,0,0,1,.162-3.009A2.092,2.092,0,0,1,239.2,16.919Z" fill="#541615"/><path d="M229.83,29.3a2.319,2.319,0,0,1-3.2.135,2.227,2.227,0,0,1,.02-3,2.088,2.088,0,0,1,2.97-.087A2.057,2.057,0,0,1,229.83,29.3Z" fill="#541615"/><path d="M219.99,39.146a2.03,2.03,0,0,1-2.953-.116,2.091,2.091,0,0,1-.011-2.974,2.228,2.228,0,0,1,3-.11A2.312,2.312,0,0,1,219.99,39.146Z" fill="#541615"/><path d="M210.52,48.61a2.018,2.018,0,0,1-2.95-.04,2.094,2.094,0,0,1-.084-2.975,2.25,2.25,0,0,1,3.006-.185A2.312,2.312,0,0,1,210.52,48.61Z" fill="#541615"/><path d="M197.818,55.266a2.093,2.093,0,0,1,2.973-.05,2.042,2.042,0,0,1,.177,2.954,2.326,2.326,0,0,1-3.2.1A2.224,2.224,0,0,1,197.818,55.266Z" fill="#541615"/><path d="M191.155,67.974a2.017,2.017,0,0,1-2.949-.075,2.093,2.093,0,0,1-.049-2.975,2.246,2.246,0,0,1,3.007-.15A2.307,2.307,0,0,1,191.155,67.974Z" fill="#541615"/><path d="M181.79,74.408a2.329,2.329,0,0,1-.268,3.193,2.057,2.057,0,0,1-2.947-.328,2.105,2.105,0,0,1,.211-2.97A2.227,2.227,0,0,1,181.79,74.408Z" fill="#541615"/><path d="M172.05,84.178A2,2,0,0,1,172,87.123a2.323,2.323,0,0,1-3.028.06,2.228,2.228,0,0,1,.1-3.173A2.118,2.118,0,0,1,172.05,84.178Z" fill="#541615"/><path d="M162.564,96.568a2.306,2.306,0,0,1-3.2.012,2.243,2.243,0,0,1,.142-3.006,2.091,2.091,0,0,1,2.974.039A2.033,2.033,0,0,1,162.564,96.568Z" fill="#541615"/><path d="M152.866,103.182a2.324,2.324,0,0,1-.111,3.2,2.042,2.042,0,0,1-2.953-.183,2.082,2.082,0,0,1,.063-2.969A2.212,2.212,0,0,1,152.866,103.182Z" fill="#541615"/><path d="M143.253,115.885a2.043,2.043,0,0,1-2.954-.18,2.093,2.093,0,0,1,.053-2.973,2.229,2.229,0,0,1,3.006-.05A2.334,2.334,0,0,1,143.253,115.885Z" fill="#541615"/><path d="M133.776,125.357a2.317,2.317,0,0,1-3.2.135,2.225,2.225,0,0,1,.02-3,2.087,2.087,0,0,1,2.97-.087A2.055,2.055,0,0,1,133.776,125.357Z" fill="#541615"/><path d="M120.945,132.136a2.249,2.249,0,0,1,3.007-.167,2.3,2.3,0,0,1,.012,3.2,2.025,2.025,0,0,1-2.954-.058A2.09,2.09,0,0,1,120.945,132.136Z" fill="#541615"/><path d="M114.481,141.505a2.315,2.315,0,0,1-.05,3.2,2.017,2.017,0,0,1-2.784.044,2.1,2.1,0,0,1-.172-3.135A2.235,2.235,0,0,1,114.481,141.505Z" fill="#541615"/><path d="M104.738,151.27a2.042,2.042,0,0,1,.177,2.954,2.324,2.324,0,0,1-3.2.1,2.221,2.221,0,0,1,.05-3A2.1,2.1,0,0,1,104.738,151.27Z" fill="#541615"/><path d="M95.412,163.726a2.321,2.321,0,0,1-3.2.1,2.226,2.226,0,0,1,.048-3,2.088,2.088,0,0,1,2.971-.055A2.045,2.045,0,0,1,95.412,163.726Z" fill="#541615"/><path d="M85.6,170.331a2.3,2.3,0,0,1,0,3.2,2.006,2.006,0,0,1-2.779.1,2.109,2.109,0,0,1-.232-3.135A2.241,2.241,0,0,1,85.6,170.331Z" fill="#541615"/><path d="M239.042.387a1.857,1.857,0,0,1-2.578.137,1.886,1.886,0,0,1-.217-2.749,1.881,1.881,0,0,1,2.585-.142A1.9,1.9,0,0,1,239.042.387Z" fill="#541615"/><path d="M226.773,7.25a1.913,1.913,0,1,1-.146,2.583A1.88,1.88,0,0,1,226.773,7.25Z" fill="#541615"/><path d="M219.9,16.834a1.872,1.872,0,1,1-2.587-.114A1.887,1.887,0,0,1,219.9,16.834Z" fill="#541615"/><path d="M210.165,29.27a1.865,1.865,0,0,1-2.583.076,1.867,1.867,0,1,1,2.583-.076Z" fill="#541615"/><path d="M197.916,36.1a1.915,1.915,0,1,1,0,2.588A1.88,1.88,0,0,1,197.916,36.1Z" fill="#541615"/><path d="M191.084,45.733a1.875,1.875,0,0,1,.033,2.587,1.911,1.911,0,1,1-2.613-2.786A1.875,1.875,0,0,1,191.084,45.733Z" fill="#541615"/><path d="M181.214,55.4a1.9,1.9,0,0,1,.062,2.761,1.912,1.912,0,1,1-.062-2.761Z" fill="#541615"/><path d="M171.711,64.906a1.9,1.9,0,0,1,.062,2.761,1.913,1.913,0,1,1-.062-2.761Z" fill="#541615"/><path d="M162.254,74.6a1.879,1.879,0,0,1,0,2.587,1.915,1.915,0,1,1,0-2.587Z" fill="#541615"/><path d="M152.756,84.111a1.867,1.867,0,1,1-2.576-.248A1.88,1.88,0,0,1,152.756,84.111Z" fill="#541615"/><path d="M142.882,93.775a1.871,1.871,0,1,1-2.571,2.718,1.871,1.871,0,1,1,2.571-2.718Z" fill="#541615"/><path d="M130.677,103.348a1.913,1.913,0,1,1,.069,2.588A1.9,1.9,0,0,1,130.677,103.348Z" fill="#541615"/><path d="M123.88,112.936a1.875,1.875,0,0,1,.034,2.587,1.911,1.911,0,1,1-2.614-2.785A1.873,1.873,0,0,1,123.88,112.936Z" fill="#541615"/><path d="M114,125.426a1.911,1.911,0,1,1,.076-2.762A1.885,1.885,0,0,1,114,125.426Z" fill="#541615"/><path d="M101.906,132.117a1.914,1.914,0,1,1-.084,2.583A1.866,1.866,0,0,1,101.906,132.117Z" fill="#541615"/><path d="M95.092,144.325a1.907,1.907,0,1,1-.1-2.585A1.879,1.879,0,0,1,95.092,144.325Z" fill="#541615"/><path d="M85.525,151.282a1.87,1.87,0,1,1-2.581-.188A1.88,1.88,0,0,1,85.525,151.282Z" fill="#541615"/><path d="M73.105,160.925a1.913,1.913,0,1,1-.173,2.576A1.856,1.856,0,0,1,73.105,160.925Z" fill="#541615"/><path d="M63.536,170.484a1.916,1.916,0,1,1-.053,2.584A1.869,1.869,0,0,1,63.536,170.484Z" fill="#541615"/><path d="M54.2,160.9a1.629,1.629,0,0,1,2.32.046,1.719,1.719,0,0,1-.083,2.343,1.542,1.542,0,0,1-2.293-.071A1.619,1.619,0,0,1,54.2,160.9Z" fill="#541615"/><path d="M65.912,151.336a1.71,1.71,0,0,1,.13,2.34,1.536,1.536,0,0,1-2.286.16,1.653,1.653,0,0,1-.17-2.323A1.673,1.673,0,0,1,65.912,151.336Z" fill="#541615"/><path d="M75.542,144.176a1.7,1.7,0,0,1-2.34-.052,1.647,1.647,0,0,1,2.416-2.239A1.538,1.538,0,0,1,75.542,144.176Z" fill="#541615"/><path d="M82.72,132.381a1.626,1.626,0,0,1,2.32-.078,1.528,1.528,0,0,1,.094,2.287,1.725,1.725,0,0,1-2.346.11A1.63,1.63,0,0,1,82.72,132.381Z" fill="#541615"/><path d="M94.8,122.52a1.706,1.706,0,0,1,.062,2.342,1.522,1.522,0,0,1-2.286.087A1.647,1.647,0,0,1,94.8,122.52Z" fill="#541615"/><path d="M219.718.5A1.749,1.749,0,0,1,217.36.406a1.548,1.548,0,0,1,.19-2.3,1.474,1.474,0,0,1,2.127.069A1.6,1.6,0,0,1,219.718.5Z" fill="#541615"/><path d="M207.813,7.849a1.544,1.544,0,0,1,2.347-.178,1.542,1.542,0,0,1,.224,2.138,1.692,1.692,0,0,1-2.509.109A1.464,1.464,0,0,1,207.813,7.849Z" fill="#541615"/><path d="M200.518,17.18a1.761,1.761,0,0,1,.159,2.358,1.573,1.573,0,0,1-2.312.03,1.476,1.476,0,0,1-.139-2.124A1.557,1.557,0,0,1,200.518,17.18Z" fill="#541615"/><path d="M188.979,26.682a1.463,1.463,0,0,1,2.067.045,1.685,1.685,0,0,1-.085,2.508,1.617,1.617,0,0,1-1.982-2.553Z" fill="#541615"/><path d="M181.486,38.738a1.743,1.743,0,0,1-2.354.133,1.513,1.513,0,0,1-.054-2.29,1.473,1.473,0,0,1,2.121-.162A1.662,1.662,0,0,1,181.486,38.738Z" fill="#541615"/><path d="M171.711,46.092a1.747,1.747,0,0,1,0,2.424,1.649,1.649,0,0,1-2.323-.213,1.555,1.555,0,0,1,.272-2.291A1.448,1.448,0,0,1,171.711,46.092Z" fill="#541615"/><path d="M160.129,55.532a1.464,1.464,0,0,1,2.067.044,1.686,1.686,0,0,1-.085,2.509,1.617,1.617,0,0,1-1.982-2.553Z" fill="#541615"/><path d="M152.5,65.4a1.6,1.6,0,0,1,0,2.317,1.726,1.726,0,0,1-2.353-.13,1.467,1.467,0,0,1,.053-2.125A1.54,1.54,0,0,1,152.5,65.4Z" fill="#541615"/><path d="M142.952,74.869a1.6,1.6,0,0,1,.083,2.316,1.719,1.719,0,0,1-2.353-.054,1.458,1.458,0,0,1-.026-2.123A1.533,1.533,0,0,1,142.952,74.869Z" fill="#541615"/><path d="M133.353,84.426a1.765,1.765,0,0,1,.017,2.427,1.637,1.637,0,0,1-2.323-.185,1.551,1.551,0,0,1,.246-2.3A1.46,1.46,0,0,1,133.353,84.426Z" fill="#541615"/><path d="M121.775,93.885a1.465,1.465,0,0,1,2.067.045,1.686,1.686,0,0,1-.084,2.509,1.617,1.617,0,0,1-1.983-2.554Z" fill="#541615"/><path d="M114.215,106a1.73,1.73,0,0,1-2.354.016,1.524,1.524,0,0,1,.077-2.3,1.478,1.478,0,0,1,2.129-.041A1.61,1.61,0,0,1,114.215,106Z" fill="#541615"/><path d="M104.471,113.243a1.757,1.757,0,0,1,.143,2.358,1.579,1.579,0,0,1-2.314.013,1.468,1.468,0,0,1-.125-2.122A1.557,1.557,0,0,1,104.471,113.243Z" fill="#541615"/><path d="M56.318,142.329a1.315,1.315,0,0,1,0,1.867,1.428,1.428,0,0,1-2.106-.058,1.368,1.368,0,0,1-.038-1.932A1.423,1.423,0,0,1,56.318,142.329Z" fill="#541615"/><path d="M198.389-2.035a1.467,1.467,0,0,1,2.139.18,1.375,1.375,0,0,1-.1,1.932,1.371,1.371,0,0,1-2.075-.219A1.361,1.361,0,0,1,198.389-2.035Z" fill="#541615"/><path d="M190.7,7.893a1.313,1.313,0,0,1,.065,1.851,1.42,1.42,0,0,1-2.1.029,1.374,1.374,0,0,1-.121-1.93A1.428,1.428,0,0,1,190.7,7.893Z" fill="#541615"/><path d="M181.25,17.454a1.327,1.327,0,0,1-.068,1.884,1.445,1.445,0,0,1-2.107-.147,1.38,1.38,0,0,1,.041-1.935A1.451,1.451,0,0,1,181.25,17.454Z" fill="#541615"/><path d="M171.619,26.914a1.436,1.436,0,0,1-.135,2.1,1.3,1.3,0,0,1-1.9-.229,1.328,1.328,0,0,1-.069-1.92A1.433,1.433,0,0,1,171.619,26.914Z" fill="#541615"/><path d="M161.9,36.8a1.33,1.33,0,0,1-.068,1.885,1.446,1.446,0,0,1-2.107-.147,1.38,1.38,0,0,1,.041-1.936A1.451,1.451,0,0,1,161.9,36.8Z" fill="#541615"/><path d="M152.4,46.3a1.327,1.327,0,0,1-.068,1.884,1.445,1.445,0,0,1-2.107-.147,1.381,1.381,0,0,1,.041-1.936A1.452,1.452,0,0,1,152.4,46.3Z" fill="#541615"/><path d="M142.769,55.764a1.436,1.436,0,0,1-.135,2.1,1.3,1.3,0,0,1-1.9-.229,1.328,1.328,0,0,1-.069-1.92A1.433,1.433,0,0,1,142.769,55.764Z" fill="#541615"/><path d="M133.265,65.268a1.435,1.435,0,0,1-.135,2.1,1.3,1.3,0,0,1-1.9-.229,1.329,1.329,0,0,1-.068-1.92A1.431,1.431,0,0,1,133.265,65.268Z" fill="#541615"/><path d="M123.466,75.068a1.313,1.313,0,0,1,.129,1.841,1.438,1.438,0,0,1-2.105.109,1.463,1.463,0,0,1-.037-2.113A1.48,1.48,0,0,1,123.466,75.068Z" fill="#541615"/><path d="M114.047,84.657a1.33,1.33,0,0,1-.068,1.885,1.446,1.446,0,0,1-2.107-.147,1.38,1.38,0,0,1,.041-1.936A1.451,1.451,0,0,1,114.047,84.657Z" fill="#541615"/><path d="M104.415,94.118a1.435,1.435,0,0,1-.135,2.1,1.3,1.3,0,0,1-1.9-.229,1.329,1.329,0,0,1-.068-1.92A1.431,1.431,0,0,1,104.415,94.118Z" fill="#541615"/><path d="M94.7,104a1.327,1.327,0,0,1-.068,1.884,1.445,1.445,0,0,1-2.107-.147,1.38,1.38,0,0,1,.042-1.936A1.45,1.45,0,0,1,94.7,104Z" fill="#541615"/><path d="M83.081,113.274a1.468,1.468,0,0,1,2.136.272,1.293,1.293,0,0,1-.162,1.9,1.445,1.445,0,0,1-2.094-.283A1.389,1.389,0,0,1,83.081,113.274Z" fill="#541615"/><path d="M75.56,122.975a1.421,1.421,0,0,1-.133,2.1,1.308,1.308,0,0,1-1.9-.237,1.343,1.343,0,0,1-.071-1.926A1.431,1.431,0,0,1,75.56,122.975Z" fill="#541615"/><path d="M66.062,132.471a1.436,1.436,0,0,1-.135,2.1,1.3,1.3,0,0,1-1.9-.229,1.328,1.328,0,0,1-.069-1.92A1.433,1.433,0,0,1,66.062,132.471Z" fill="#541615"/><path d="M46.843,151.861a1.327,1.327,0,0,1-.068,1.884,1.445,1.445,0,0,1-2.107-.147,1.38,1.38,0,0,1,.042-1.936A1.45,1.45,0,0,1,46.843,151.861Z" fill="#541615"/><path d="M37.212,161.321a1.436,1.436,0,0,1-.135,2.1,1.3,1.3,0,0,1-1.9-.229,1.328,1.328,0,0,1-.069-1.92A1.433,1.433,0,0,1,37.212,161.321Z" fill="#541615"/><path d="M161.791,19.054a1.252,1.252,0,0,1-1.8-.057,1.079,1.079,0,0,1,.057-1.687,1.237,1.237,0,0,1,1.745,1.744Z" fill="#541615"/><path d="M113.688,65.485a1.2,1.2,0,0,1-.1,1.724,1.091,1.091,0,0,1-1.687-.14,1.195,1.195,0,1,1,1.789-1.584Z" fill="#541615"/><path d="M171.344,7.725a1.225,1.225,0,0,1,0,1.729,1.094,1.094,0,0,1-1.693-.019,1.142,1.142,0,0,1-.018-1.711A1.142,1.142,0,0,1,171.344,7.725Z" fill="#541615"/><path d="M36.907,142.091a1.251,1.251,0,0,1,.011,1.793,1.1,1.1,0,0,1-1.693-.064,1.14,1.14,0,0,1,.023-1.709A1.158,1.158,0,0,1,36.907,142.091Z" fill="#541615"/><path d="M150.2,27.108a1.17,1.17,0,0,1,1.762-.037,1.154,1.154,0,0,1,.047,1.715,1.087,1.087,0,0,1-1.689,0A1.233,1.233,0,0,1,150.2,27.108Z" fill="#541615"/><path d="M142.551,38.259a1.118,1.118,0,0,1-1.691.076,1.137,1.137,0,0,1-.13-1.7,1.075,1.075,0,0,1,1.682-.1A1.217,1.217,0,0,1,142.551,38.259Z" fill="#541615"/><path d="M132.959,47.855a1.2,1.2,0,0,1-1.718.087,1.08,1.08,0,0,1-.145-1.681,1.132,1.132,0,0,1,1.7-.108A1.144,1.144,0,0,1,132.959,47.855Z" fill="#541615"/><path d="M121.613,55.706a1.21,1.21,0,0,1,1.73-.012,1.1,1.1,0,0,1,.07,1.692,1.145,1.145,0,0,1-1.712.015A1.13,1.13,0,0,1,121.613,55.706Z" fill="#541615"/><path d="M104.171,76.64a1.124,1.124,0,0,1-1.693.024,1.142,1.142,0,0,1-.078-1.71,1.08,1.08,0,0,1,1.686-.045A1.21,1.21,0,0,1,104.171,76.64Z" fill="#541615"/><path d="M94.561,84.586a1.135,1.135,0,0,1-.051,1.7,1.152,1.152,0,0,1-1.714-.074,1.075,1.075,0,0,1,.037-1.685A1.2,1.2,0,0,1,94.561,84.586Z" fill="#541615"/><path d="M84.714,94.208a1.21,1.21,0,0,1,.141,1.724,1.075,1.075,0,0,1-1.681.112,1.139,1.139,0,0,1-.145-1.7A1.11,1.11,0,0,1,84.714,94.208Z" fill="#541615"/><path d="M75.248,103.723a1.256,1.256,0,0,1,.033,1.8,1.087,1.087,0,0,1-1.689-.052,1.2,1.2,0,0,1,1.656-1.744Z" fill="#541615"/><path d="M63.88,113.422a1.249,1.249,0,0,1,1.793,0,1.084,1.084,0,0,1,0,1.689,1.236,1.236,0,0,1-1.8-1.688Z" fill="#541615"/><path d="M56.314,123.089a1.113,1.113,0,0,1-.308,1.667,1.162,1.162,0,0,1-1.685-.336,1.071,1.071,0,0,1,.3-1.655A1.192,1.192,0,0,1,56.314,123.089Z" fill="#541615"/><path d="M44.811,132.523a1.229,1.229,0,0,1,1.538,1.915,1.1,1.1,0,0,1-1.682-.2A1.179,1.179,0,0,1,44.811,132.523Z" fill="#541615"/><path d="M27.288,153.527a1.21,1.21,0,0,1-1.726-.146,1.074,1.074,0,0,1,.1-1.681,1.224,1.224,0,0,1,1.627,1.827Z" fill="#541615"/><path d="M17.438,161.343a1.238,1.238,0,0,1,.222,1.782,1.074,1.074,0,0,1-1.68.132,1.2,1.2,0,0,1,1.458-1.914Z" fill="#541615"/><path d="M181.018-1.666c.412.6.449,1.121-.032,1.551a1,1,0,0,1-1.611-.168.969.969,0,0,1,.228-1.444A1.05,1.05,0,0,1,181.018-1.666Z" fill="#541615"/><path d="M161.7-.173a.9.9,0,0,1-1.289-.115.877.877,0,0,1,.18-1.43.834.834,0,0,1,1.25.245A.937.937,0,0,1,161.7-.173Z" fill="#541615"/><path d="M150.636,8.168c.509-.395.973-.441,1.363-.048a.866.866,0,0,1-.072,1.436.908.908,0,0,1-1.29-.166A.894.894,0,0,1,150.636,8.168Z" fill="#541615"/><path d="M142.254,17.612a.965.965,0,0,1,.261,1.341.94.94,0,1,1-1.484-1.151A.892.892,0,0,1,142.254,17.612Z" fill="#541615"/><path d="M132.929,27.285a.925.925,0,0,1-.016,1.3.94.94,0,1,1-1.259-1.393A.863.863,0,0,1,132.929,27.285Z" fill="#541615"/><path d="M123.134,38.379a.931.931,0,0,1-1.3-.089.931.931,0,1,1,1.419-1.2A.9.9,0,0,1,123.134,38.379Z" fill="#541615"/><path d="M113.63,47.882a.929.929,0,0,1-1.3-.089.93.93,0,1,1,1.418-1.2A.894.894,0,0,1,113.63,47.882Z" fill="#541615"/><path d="M104,56.035c.391.505.461.974.085,1.375a.941.941,0,1,1-1.3-1.354A.9.9,0,0,1,104,56.035Z" fill="#541615"/><path d="M94.5,67.026a.9.9,0,0,1-1.286-.1.878.878,0,0,1,.167-1.431.828.828,0,0,1,1.25.235A.936.936,0,0,1,94.5,67.026Z" fill="#541615"/><path d="M84.775,76.738a.932.932,0,0,1-1.3-.1.932.932,0,1,1,1.436-1.185A.9.9,0,0,1,84.775,76.738Z" fill="#541615"/><path d="M75.2,86.339a.925.925,0,0,1-1.352-.09.879.879,0,0,1,.207-1.427.839.839,0,0,1,1.246.264A.963.963,0,0,1,75.2,86.339Z" fill="#541615"/><path d="M65.744,94.509a.922.922,0,0,1-.054,1.3.874.874,0,0,1-1.43-.16.936.936,0,0,1,1.484-1.136Z" fill="#541615"/><path d="M56.055,104.284a.871.871,0,0,1-.123,1.278.907.907,0,0,1-1.435-.244.844.844,0,0,1,.286-1.239A.885.885,0,0,1,56.055,104.284Z" fill="#541615"/><path d="M46.508,113.722a.887.887,0,0,1-.019,1.285.9.9,0,0,1-1.45-.117.837.837,0,0,1,.181-1.262A.9.9,0,0,1,46.508,113.722Z" fill="#541615"/><path d="M35.535,123.285a.863.863,0,0,1,1.278.006.9.9,0,0,1-.071,1.454.871.871,0,0,1-1.278-.17A.9.9,0,0,1,35.535,123.285Z" fill="#541615"/><path d="M27.4,132.884a.917.917,0,0,1-.086,1.293.875.875,0,0,1-1.424-.2.859.859,0,0,1,.233-1.259A.878.878,0,0,1,27.4,132.884Z" fill="#541615"/><path d="M17.577,143.936a.931.931,0,0,1-1.3-.089.931.931,0,1,1,1.419-1.2A.9.9,0,0,1,17.577,143.936Z" fill="#541615"/><path d="M8.064,153.449a.933.933,0,0,1-1.3-.113.854.854,0,0,1,.194-1.415.859.859,0,0,1,1.256.243A.9.9,0,0,1,8.064,153.449Z" fill="#541615"/><path d="M132.413,8.221a.685.685,0,0,1,.126,1.029.655.655,0,0,1-1.022.066.634.634,0,0,1-.1-.852A.685.685,0,0,1,132.413,8.221Z" fill="#541615"/><path d="M123.058,17.86a.683.683,0,0,1-.159,1.018.651.651,0,0,1-1-.2.637.637,0,0,1,.132-.849A.67.67,0,0,1,123.058,17.86Z" fill="#541615"/><path d="M112.492,27.368a.691.691,0,1,1,.724,1.169.638.638,0,0,1-.846-.149A.679.679,0,0,1,112.492,27.368Z" fill="#541615"/><path d="M103.924,36.94a.677.677,0,0,1-.1,1.023.655.655,0,0,1-1.009-.152.626.626,0,0,1,.076-.849A.686.686,0,0,1,103.924,36.94Z" fill="#541615"/><path d="M94.187,46.681a.691.691,0,0,1-.129,1.041.652.652,0,0,1-1-.187.635.635,0,0,1,.113-.849A.684.684,0,0,1,94.187,46.681Z" fill="#541615"/><path d="M83.575,56.29c.316-.356.68-.452,1.029-.155a.7.7,0,0,1-.816,1.138A.667.667,0,0,1,83.575,56.29Z" fill="#541615"/><path d="M75.109,65.823a.694.694,0,0,1-.184,1.025.684.684,0,0,1-.834-1.082A.679.679,0,0,1,75.109,65.823Z" fill="#541615"/><path d="M64.6,75.248a.694.694,0,1,1,.808,1.121.633.633,0,0,1-.853-.091A.675.675,0,0,1,64.6,75.248Z" fill="#541615"/><path d="M55.81,85.017a.681.681,0,0,1-.082,1.045.653.653,0,0,1-1.009-.152.638.638,0,0,1,.079-.852A.668.668,0,0,1,55.81,85.017Z" fill="#541615"/><path d="M46.191,95.622a.677.677,0,0,1-1.034-.06.647.647,0,0,1,.163-1,.628.628,0,0,1,.851.034A.692.692,0,0,1,46.191,95.622Z" fill="#541615"/><path d="M36.7,104.119a.684.684,0,0,1-.068,1.043.655.655,0,0,1-1.011-.137.624.624,0,0,1,.062-.849A.681.681,0,0,1,36.7,104.119Z" fill="#541615"/><path d="M25.875,113.99c.316-.356.68-.452,1.03-.155a.7.7,0,0,1-.817,1.138A.667.667,0,0,1,25.875,113.99Z" fill="#541615"/><path d="M17.511,123.434a.683.683,0,0,1-.186,1.013.684.684,0,0,1-.834-1.083A.662.662,0,0,1,17.511,123.434Z" fill="#541615"/><path d="M6.8,133.94a.672.672,0,0,1,.15-1.012.68.68,0,0,1,.885,1.031A.691.691,0,0,1,6.8,133.94Z" fill="#541615"/><path d="M75.154,47.092a.479.479,0,0,1-.273.341.39.39,0,0,1-.566-.209.414.414,0,0,1,.192-.582C74.735,46.538,74.957,46.585,75.154,47.092Z" fill="#541615"/><path d="M113.157,9.162a.539.539,0,0,1-.395-.157.423.423,0,0,1-.031-.615.38.38,0,0,1,.6-.037C113.5,8.53,113.543,8.755,113.157,9.162Z" fill="#541615"/><path d="M103.6,18.166a.4.4,0,0,1,.037.537.44.44,0,0,1-.613.114.392.392,0,0,1-.114-.594C103.055,18.03,103.286,17.97,103.6,18.166Z" fill="#541615"/><path d="M94.183,27.788c.089.111.06.33-.134.5a.419.419,0,0,1-.613-.043.389.389,0,0,1,.049-.6C93.681,27.473,93.907,27.5,94.183,27.788Z" fill="#541615"/><path d="M84.307,38.012a.539.539,0,0,1-.395-.157.423.423,0,0,1-.031-.615.38.38,0,0,1,.6-.037C84.649,37.38,84.693,37.6,84.307,38.012Z" fill="#541615"/><path d="M7.683,114.642a.374.374,0,0,1-.514-.121.423.423,0,0,1,.043-.614.378.378,0,0,1,.6.046C7.973,114.152,7.942,114.377,7.683,114.642Z" fill="#541615"/><path d="M64.625,56.488a.446.446,0,0,1,.618.046.378.378,0,0,1-.043.595.43.43,0,0,1-.617-.042A.394.394,0,0,1,64.625,56.488Z" fill="#541615"/><path d="M55.887,66.365a.435.435,0,0,1-.291.338.419.419,0,0,1-.581-.2.384.384,0,0,1,.2-.563C55.446,65.853,55.674,65.884,55.887,66.365Z" fill="#541615"/><path d="M45.591,76.252a.47.47,0,0,1-.1-.618.4.4,0,0,1,.594-.118.443.443,0,0,1-.493.736Z" fill="#541615"/><path d="M36.484,85.506a.4.4,0,0,1-.178.517.437.437,0,0,1-.61-.118.392.392,0,0,1,.131-.59A.466.466,0,0,1,36.484,85.506Z" fill="#541615"/><path d="M26.271,94.842a.444.444,0,0,1,.618.045.379.379,0,0,1-.042.6.43.43,0,0,1-.617-.042A.394.394,0,0,1,26.271,94.842Z" fill="#541615"/><path d="M16.678,104.431a.4.4,0,0,1,.6-.026.418.418,0,0,1,.032.611.381.381,0,0,1-.6.026A.43.43,0,0,1,16.678,104.431Z" fill="#541615"/><path d="M93.746,8.56c.017.066.068.155.043.194-.105.161-.232.153-.317-.02-.02-.041.03-.149.077-.18S93.679,8.556,93.746,8.56Z" fill="#541615"/><path d="M84.243,18.064c.016.066.067.155.042.194-.1.16-.232.152-.316-.021-.02-.04.029-.148.077-.179S84.176,18.059,84.243,18.064Z" fill="#541615"/><path d="M74.6,27.831c-.019.066-.02.155-.063.189a.2.2,0,0,1-.193.008c-.139-.139-.1-.261.09-.3C74.48,27.714,74.545,27.793,74.6,27.831Z" fill="#541615"/><path d="M65.1,37.4c-.039.056-.072.154-.117.159-.19.023-.267-.079-.19-.253a.2.2,0,0,1,.182-.063C65.028,37.261,65.059,37.346,65.1,37.4Z" fill="#541615"/><path d="M55.218,46.873c.065.021.167.023.188.065.084.172.011.277-.18.26-.046,0-.112-.1-.114-.159S55.18,46.929,55.218,46.873Z" fill="#541615"/><path d="M45.8,56.378c.049.049.14.1.138.145-.011.191-.125.248-.285.139a.2.2,0,0,1-.022-.194C45.657,56.42,45.746,56.405,45.8,56.378Z" fill="#541615"/><path d="M36.162,66.39c-.068,0-.168.018-.2-.018-.119-.151-.072-.269.118-.294.046-.006.136.072.148.124S36.188,66.327,36.162,66.39Z" fill="#541615"/><path d="M26.368,75.723c.065.021.167.023.188.065.084.172.011.277-.18.26-.046,0-.112-.1-.114-.159S26.33,75.779,26.368,75.723Z" fill="#541615"/><path d="M16.865,85.227c.065.02.167.022.187.064.084.172.012.277-.18.26-.045,0-.112-.1-.114-.159S16.826,85.282,16.865,85.227Z" fill="#541615"/><path d="M7.259,94.918c.05.05.141.1.138.146-.012.191-.127.246-.285.136a.205.205,0,0,1-.02-.2C7.117,94.958,7.206,94.944,7.259,94.918Z" fill="#541615"/></g><circle cx="-163.499" cy="178.678" r="215.473" fill="url(#linear-gradient-22)" style="mix-blend-mode:screen"/></g></g><g clip-path="url(#clip-path-5)"><g clip-path="url(#clip-path-6)"><g style="mix-blend-mode:screen"><circle cx="251.933" cy="200.672" r="176.43" fill="none" stroke-miterlimit="10" stroke-width="3" stroke="url(#linear-gradient-23)"/><circle cx="251.933" cy="200.672" r="168.106" fill="none" stroke-miterlimit="10" stroke-width="2.778" stroke="url(#linear-gradient-24)"/><circle cx="251.933" cy="200.672" r="159.782" fill="none" stroke-miterlimit="10" stroke-width="2.556" stroke="url(#linear-gradient-25)"/><circle cx="251.933" cy="200.672" r="151.459" fill="none" stroke-miterlimit="10" stroke-width="2.333" stroke="url(#linear-gradient-26)"/><circle cx="251.933" cy="200.672" r="143.135" fill="none" stroke-miterlimit="10" stroke-width="2.111" stroke="url(#linear-gradient-27)"/><circle cx="251.933" cy="200.672" r="134.811" fill="none" stroke-miterlimit="10" stroke-width="1.889" stroke="url(#linear-gradient-28)"/><circle cx="251.933" cy="200.672" r="126.487" fill="none" stroke-miterlimit="10" stroke-width="1.667" stroke="url(#linear-gradient-29)"/><circle cx="251.933" cy="200.672" r="118.164" fill="none" stroke-miterlimit="10" stroke-width="1.444" stroke="url(#linear-gradient-30)"/><circle cx="251.933" cy="200.672" r="109.84" fill="none" stroke-miterlimit="10" stroke-width="1.222" stroke="url(#linear-gradient-31)"/><circle cx="251.933" cy="200.672" r="101.516" fill="none" stroke-miterlimit="10" stroke="url(#linear-gradient-32)"/></g><g opacity="0.5" style="mix-blend-mode:screen"><circle cx="251.933" cy="53.895" r="144.38" transform="translate(35.68 193.929) rotate(-45)" fill="none" stroke-miterlimit="10" stroke-width="3" stroke="url(#linear-gradient-33)"/><circle cx="251.933" cy="53.895" r="137.568" fill="none" stroke-miterlimit="10" stroke-width="2.778" stroke="url(#linear-gradient-34)"/><circle cx="251.933" cy="53.895" r="130.756" fill="none" stroke-miterlimit="10" stroke-width="2.556" stroke="url(#linear-gradient-35)"/><circle cx="251.933" cy="53.895" r="123.945" transform="translate(35.68 193.929) rotate(-45)" fill="none" stroke-miterlimit="10" stroke-width="2.333" stroke="url(#linear-gradient-36)"/><circle cx="251.933" cy="53.895" r="117.133" transform="translate(35.68 193.929) rotate(-45)" fill="none" stroke-miterlimit="10" stroke-width="2.111" stroke="url(#linear-gradient-37)"/><circle cx="251.933" cy="53.895" r="110.322" transform="translate(35.68 193.929) rotate(-45)" fill="none" stroke-miterlimit="10" stroke-width="1.889" stroke="url(#linear-gradient-38)"/><circle cx="251.933" cy="53.895" r="103.51" fill="none" stroke-miterlimit="10" stroke-width="1.667" stroke="url(#linear-gradient-39)"/><circle cx="251.933" cy="53.895" r="96.698" fill="none" stroke-miterlimit="10" stroke-width="1.444" stroke="url(#linear-gradient-40)"/><circle cx="251.933" cy="53.895" r="89.887" fill="none" stroke-miterlimit="10" stroke-width="1.222" stroke="url(#linear-gradient-41)"/><circle cx="251.933" cy="53.895" r="83.075" transform="translate(35.68 193.929) rotate(-45)" fill="none" stroke-miterlimit="10" stroke="url(#linear-gradient-42)"/></g><circle cx="368.153" cy="378.894" r="215.473" fill="url(#linear-gradient-43)" style="mix-blend-mode:screen"/></g></g><g clip-path="url(#clip-path-7)"><rect x="224.317" y="-28.491" width="750" height="500" fill="url(#linear-gradient-44)"/><g clip-path="url(#clip-path-8)"><g style="mix-blend-mode:screen"><path d="M224.317,13.657a4.884,4.884,0,0,0,5.174-.93,4.553,4.553,0,0,0,.15-6.645,4.563,4.563,0,0,0-5.324-1.177Z" fill="#541615"/><path d="M230.851-2.083a4.553,4.553,0,0,1,6.633.07,4.571,4.571,0,0,1,.1,6.652,4.856,4.856,0,0,1-6.722.145A4.886,4.886,0,0,1,230.851-2.083Z" fill="#541615"/><path d="M230.967,20.369a4.439,4.439,0,0,1-.091-6.448,4.807,4.807,0,0,1,6.694.174,4.7,4.7,0,0,1-.18,6.526A4.337,4.337,0,0,1,230.967,20.369Z" fill="#541615"/><path d="M239.008,12.478a4.438,4.438,0,0,1-.242-6.447,4.788,4.788,0,0,1,6.692.025,4.69,4.69,0,0,1-.027,6.526A4.337,4.337,0,0,1,239.008,12.478Z" fill="#541615"/><path d="M224.317,29.594a4.713,4.713,0,0,0,5.06-.958,4.338,4.338,0,0,0-.07-6.423,4.544,4.544,0,0,0-4.99-1.221Z" fill="#541615"/><path d="M224.317,45.634a4.411,4.411,0,0,0,4.966-.877,4.511,4.511,0,0,0-4.966-7.328Z" fill="#541615"/><path d="M230.921,36.53a4.638,4.638,0,0,1,.018-6.215,4.521,4.521,0,0,1,6.482.1,4.461,4.461,0,0,1-.118,6.321A4.69,4.69,0,0,1,230.921,36.53Z" fill="#541615"/><path d="M239.179,28.5a4.519,4.519,0,0,1-.081-6.34,4.619,4.619,0,0,1,6.357-.012,4.692,4.692,0,0,1,.05,6.385A4.475,4.475,0,0,1,239.179,28.5Z" fill="#541615"/><path d="M224.317,61.508a4.294,4.294,0,1,0,0-7.731Z" fill="#541615"/><path d="M231.118,46.6a4.331,4.331,0,1,1-.027,6.091A4.237,4.237,0,0,1,231.118,46.6Z" fill="#541615"/><path d="M239.352,44.636a4.305,4.305,0,0,1-.161-6.105,4.233,4.233,0,0,1,6.091-.115,4.3,4.3,0,1,1-5.93,6.22Z" fill="#541615"/><path d="M224.317,77.519a3.894,3.894,0,0,0,4.541-.937,3.812,3.812,0,0,0,.146-5.7,4.3,4.3,0,0,0-4.687-.992Z" fill="#541615"/><path d="M231.361,68.507a4.222,4.222,0,0,1-.144-5.949,4.359,4.359,0,0,1,5.986.111,3.873,3.873,0,0,1-.145,5.713A3.81,3.81,0,0,1,231.361,68.507Z" fill="#541615"/><path d="M239.339,60.555a4.222,4.222,0,0,1-.169-5.949,4.353,4.353,0,0,1,5.985.085,3.872,3.872,0,0,1-.118,5.712A3.82,3.82,0,0,1,239.339,60.555Z" fill="#541615"/><path d="M224.317,93.162a3.786,3.786,0,0,0,4.908-.661,4.12,4.12,0,0,0-.2-5.62,4.254,4.254,0,0,0-4.712-.677Z" fill="#541615"/><path d="M231.491,84.587a3.855,3.855,0,0,1-.146-5.7,4.182,4.182,0,0,1,5.64.021,4.119,4.119,0,0,1,.214,5.619A3.855,3.855,0,0,1,231.491,84.587Z" fill="#541615"/><path d="M245.078,71.005a3.858,3.858,0,0,1-.066,5.709,4.12,4.12,0,0,1-5.619-.217,4.175,4.175,0,0,1-.015-5.639A3.855,3.855,0,0,1,245.078,71.005Z" fill="#541615"/><path d="M224.317,109.3a3.869,3.869,0,0,0,4.548-6.077,4.13,4.13,0,0,0-4.548-.869Z" fill="#541615"/><path d="M236.913,100.352a3.715,3.715,0,0,1-5.382.149,3.858,3.858,0,1,1,5.368-5.538A3.722,3.722,0,0,1,236.913,100.352Z" fill="#541615"/><path d="M239.369,86.964a4.022,4.022,0,0,1,5.61.151,3.856,3.856,0,0,1-5.6,5.3A4.006,4.006,0,0,1,239.369,86.964Z" fill="#541615"/><path d="M224.317,125.026a3.441,3.441,0,0,0,4.257-.405,3.616,3.616,0,0,0,.436-5.182,3.984,3.984,0,0,0-4.693-.762Z" fill="#541615"/><path d="M236.54,116.653a3.468,3.468,0,0,1-5.009-.2,3.768,3.768,0,0,1,.021-5.236,3.951,3.951,0,0,1,5.421.255A3.611,3.611,0,0,1,236.54,116.653Z" fill="#541615"/><path d="M244.791,108.407a3.578,3.578,0,0,1-5.187.021,3.958,3.958,0,0,1,.02-5.282A3.784,3.784,0,0,1,245,103.4,3.475,3.475,0,0,1,244.791,108.407Z" fill="#541615"/><path d="M224.317,140.948a3.408,3.408,0,0,0,4.245-.46,3.49,3.49,0,0,0-4.245-5.5Z" fill="#541615"/><path d="M231.708,132.488a3.6,3.6,0,0,1-.029-5.053,3.2,3.2,0,0,1,4.8-.14,3.461,3.461,0,0,1,.129,5.152A3.563,3.563,0,0,1,231.708,132.488Z" fill="#541615"/><path d="M239.7,124.546a3.6,3.6,0,0,1-.073-5.054,3.2,3.2,0,0,1,4.795-.183,3.46,3.46,0,0,1,.174,5.151A3.564,3.564,0,0,1,239.7,124.546Z" fill="#541615"/><path d="M224.317,156.935a3.115,3.115,0,0,0,4.172-.406,3.487,3.487,0,0,0-.05-4.717,3.22,3.22,0,0,0-4.122-.438Z" fill="#541615"/><path d="M231.687,148.332a3.255,3.255,0,0,1,.37-4.8,3.076,3.076,0,0,1,4.592.447,3.164,3.164,0,0,1-.259,4.637A3.462,3.462,0,0,1,231.687,148.332Z" fill="#541615"/><path d="M239.955,140.248a3.051,3.051,0,0,1-.016-4.607,3.241,3.241,0,0,1,4.667-.087,3.486,3.486,0,0,1,.141,4.715A3.194,3.194,0,0,1,239.955,140.248Z" fill="#541615"/><path d="M224.317,172.752a3.416,3.416,0,0,0,3.986-.26,3.3,3.3,0,0,0,.218-4.539,3.371,3.371,0,0,0-4.2-.549Z" fill="#541615"/><path d="M231.76,164.4a3.257,3.257,0,0,1-.033-4.526,3.375,3.375,0,0,1,4.561-.084,3.293,3.293,0,0,1,.039,4.683A3.425,3.425,0,0,1,231.76,164.4Z" fill="#541615"/><path d="M239.877,151.722a3.259,3.259,0,0,1,4.525.079,3.425,3.425,0,0,1,.028,4.568,3.308,3.308,0,0,1-4.545.059A3.375,3.375,0,0,1,239.877,151.722Z" fill="#541615"/><path d="M244.37,172.358a3.127,3.127,0,0,1-4.328.066,3.216,3.216,0,0,1-.166-4.2,3.011,3.011,0,0,1,4.3-.157A2.957,2.957,0,0,1,244.37,172.358Z" fill="#541615"/></g><g style="mix-blend-mode:screen"><circle cx="224.317" cy="293.287" r="176.43" fill="none" stroke-miterlimit="10" stroke-width="3" stroke="url(#linear-gradient-45)"/><circle cx="224.316" cy="293.287" r="168.106" fill="none" stroke-miterlimit="10" stroke-width="2.778" stroke="url(#linear-gradient-46)"/><circle cx="224.317" cy="293.287" r="159.782" fill="none" stroke-miterlimit="10" stroke-width="2.556" stroke="url(#linear-gradient-47)"/><circle cx="224.317" cy="293.287" r="151.459" fill="none" stroke-miterlimit="10" stroke-width="2.333" stroke="url(#linear-gradient-48)"/><circle cx="224.316" cy="293.287" r="143.135" fill="none" stroke-miterlimit="10" stroke-width="2.111" stroke="url(#linear-gradient-49)"/><circle cx="224.317" cy="293.287" r="134.811" fill="none" stroke-miterlimit="10" stroke-width="1.889" stroke="url(#linear-gradient-50)"/><circle cx="224.316" cy="293.287" r="126.487" fill="none" stroke-miterlimit="10" stroke-width="1.667" stroke="url(#linear-gradient-51)"/></g><g opacity="0.5" style="mix-blend-mode:screen"><circle cx="224.317" cy="146.51" r="144.38" transform="translate(-37.897 201.527) rotate(-45)" fill="none" stroke-miterlimit="10" stroke-width="3" stroke="url(#linear-gradient-52)"/><circle cx="224.317" cy="146.51" r="137.568" fill="none" stroke-miterlimit="10" stroke-width="2.778" stroke="url(#linear-gradient-53)"/><circle cx="224.317" cy="146.51" r="130.756" fill="none" stroke-miterlimit="10" stroke-width="2.556" stroke="url(#linear-gradient-54)"/><circle cx="224.317" cy="146.51" r="123.945" transform="translate(-37.897 201.527) rotate(-45)" fill="none" stroke-miterlimit="10" stroke-width="2.333" stroke="url(#linear-gradient-55)"/><circle cx="224.317" cy="146.51" r="117.133" transform="translate(-37.897 201.527) rotate(-45)" fill="none" stroke-miterlimit="10" stroke-width="2.111" stroke="url(#linear-gradient-56)"/><circle cx="224.317" cy="146.51" r="110.322" transform="translate(-37.897 201.527) rotate(-45)" fill="none" stroke-miterlimit="10" stroke-width="1.889" stroke="url(#linear-gradient-57)"/><circle cx="224.317" cy="146.51" r="103.51" fill="none" stroke-miterlimit="10" stroke-width="1.667" stroke="url(#linear-gradient-58)"/><circle cx="224.317" cy="146.51" r="96.698" fill="none" stroke-miterlimit="10" stroke-width="1.444" stroke="url(#linear-gradient-59)"/><circle cx="224.317" cy="146.51" r="89.887" fill="none" stroke-miterlimit="10" stroke-width="1.222" stroke="url(#linear-gradient-60)"/><circle cx="224.317" cy="146.51" r="83.075" transform="translate(-37.897 201.527) rotate(-45)" fill="none" stroke-miterlimit="10" stroke="url(#linear-gradient-61)"/></g></g></g></g></g></svg>